<svg id="my-svg" width="100%" xmlns="http://www.w3.org/2000/svg" xmlns:xlink="http://www.w3.org/1999/xlink" class="erDiagram" style="max-width: 595.406px; background-color: white;" viewBox="0 0 595.40625 773.75" role="graphics-document document" aria-roledescription="er"><style>#my-svg{font-family:"trebuchet ms",verdana,arial,sans-serif;font-size:16px;fill:#000000;}@keyframes edge-animation-frame{from{stroke-dashoffset:0;}}@keyframes dash{to{stroke-dashoffset:0;}}#my-svg .edge-animation-slow{stroke-dasharray:9,5!important;stroke-dashoffset:900;animation:dash 50s linear infinite;stroke-linecap:round;}#my-svg .edge-animation-fast{stroke-dasharray:9,5!important;stroke-dashoffset:900;animation:dash 20s linear infinite;stroke-linecap:round;}#my-svg .error-icon{fill:#552222;}#my-svg .error-text{fill:#552222;stroke:#552222;}#my-svg .edge-thickness-normal{stroke-width:1px;}#my-svg .edge-thickness-thick{stroke-width:3.5px;}#my-svg .edge-pattern-solid{stroke-dasharray:0;}#my-svg .edge-thickness-invisible{stroke-width:0;fill:none;}#my-svg .edge-pattern-dashed{stroke-dasharray:3;}#my-svg .edge-pattern-dotted{stroke-dasharray:2;}#my-svg .marker{fill:#000000;stroke:#000000;}#my-svg .marker.cross{stroke:#000000;}#my-svg svg{font-family:"trebuchet ms",verdana,arial,sans-serif;font-size:16px;}#my-svg p{margin:0;}#my-svg .entityBox{fill:#cde498;stroke:#13540c;}#my-svg .relationshipLabelBox{fill:hsl(78.1578947368, 58.4615384615%, 84.5098039216%);opacity:0.7;background-color:hsl(78.1578947368, 58.4615384615%, 84.5098039216%);}#my-svg .relationshipLabelBox rect{opacity:0.5;}#my-svg .labelBkg{background-color:rgba(224.6153846155, 238.5923076923, 192.4076923078, 0.5);}#my-svg .edgeLabel .label{fill:#13540c;font-size:14px;}#my-svg .label{font-family:"trebuchet ms",verdana,arial,sans-serif;color:#000000;}#my-svg .edge-pattern-dashed{stroke-dasharray:8,8;}#my-svg .node rect,#my-svg .node circle,#my-svg .node ellipse,#my-svg .node polygon{fill:#cde498;stroke:#13540c;stroke-width:1px;}#my-svg .relationshipLine{stroke:#000000;stroke-width:1;fill:none;}#my-svg .marker{fill:none!important;stroke:#000000!important;stroke-width:1;}#my-svg :root{--mermaid-font-family:"trebuchet ms",verdana,arial,sans-serif;}</style><g><defs><marker id="my-svg_er-onlyOneStart" class="marker onlyOne er" refX="0" refY="9" markerWidth="18" markerHeight="18" orient="auto"><path d="M9,0 L9,18 M15,0 L15,18"/></marker></defs><defs><marker id="my-svg_er-onlyOneEnd" class="marker onlyOne er" refX="18" refY="9" markerWidth="18" markerHeight="18" orient="auto"><path d="M3,0 L3,18 M9,0 L9,18"/></marker></defs><defs><marker id="my-svg_er-zeroOrOneStart" class="marker zeroOrOne er" refX="0" refY="9" markerWidth="30" markerHeight="18" orient="auto"><circle fill="white" cx="21" cy="9" r="6"/><path d="M9,0 L9,18"/></marker></defs><defs><marker id="my-svg_er-zeroOrOneEnd" class="marker zeroOrOne er" refX="30" refY="9" markerWidth="30" markerHeight="18" orient="auto"><circle fill="white" cx="9" cy="9" r="6"/><path d="M21,0 L21,18"/></marker></defs><defs><marker id="my-svg_er-oneOrMoreStart" class="marker oneOrMore er" refX="18" refY="18" markerWidth="45" markerHeight="36" orient="auto"><path d="M0,18 Q 18,0 36,18 Q 18,36 0,18 M42,9 L42,27"/></marker></defs><defs><marker id="my-svg_er-oneOrMoreEnd" class="marker oneOrMore er" refX="27" refY="18" markerWidth="45" markerHeight="36" orient="auto"><path d="M3,9 L3,27 M9,18 Q27,0 45,18 Q27,36 9,18"/></marker></defs><defs><marker id="my-svg_er-zeroOrMoreStart" class="marker zeroOrMore er" refX="18" refY="18" markerWidth="57" markerHeight="36" orient="auto"><circle fill="white" cx="48" cy="18" r="6"/><path d="M0,18 Q18,0 36,18 Q18,36 0,18"/></marker></defs><defs><marker id="my-svg_er-zeroOrMoreEnd" class="marker zeroOrMore er" refX="39" refY="18" markerWidth="57" markerHeight="36" orient="auto"><circle fill="white" cx="9" cy="18" r="6"/><path d="M21,18 Q39,0 57,18 Q39,36 21,18"/></marker></defs><g class="root"><g class="clusters"/><g class="edgePaths"><path d="M201.635,136.25L188.429,144.667C175.223,153.083,148.811,169.917,135.605,186.75C122.398,203.583,122.398,220.417,122.398,228.833L122.398,237.25" id="id_entity-MatchForecast-1_entity-User-2_0" class="edge-thickness-normal edge-pattern-solid relationshipLine" style="undefined;;;undefined" data-edge="true" data-et="edge" data-id="id_entity-MatchForecast-1_entity-User-2_0" data-points="W3sieCI6MjAxLjYzNTExMjc5OTg5MDk1LCJ5IjoxMzYuMjV9LHsieCI6MTIyLjM5ODQzNzUsInkiOjE4Ni43NX0seyJ4IjoxMjIuMzk4NDM3NSwieSI6MjM3LjI1fV0=" marker-start="url(#my-svg_er-zeroOrOneStart)" marker-end="url(#my-svg_er-onlyOneEnd)"/><path d="M402.865,136.25L416.071,144.667C429.277,153.083,455.689,169.917,468.895,190.313C482.102,210.708,482.102,234.667,482.102,246.646L482.102,258.625" id="id_entity-MatchForecast-1_entity-Match-3_1" class="edge-thickness-normal edge-pattern-solid relationshipLine" style="undefined;;;undefined" data-edge="true" data-et="edge" data-id="id_entity-MatchForecast-1_entity-Match-3_1" data-points="W3sieCI6NDAyLjg2NDg4NzIwMDEwOSwieSI6MTM2LjI1fSx7IngiOjQ4Mi4xMDE1NjI1LCJ5IjoxODYuNzV9LHsieCI6NDgyLjEwMTU2MjUsInkiOjI1OC42MjV9XQ==" marker-start="url(#my-svg_er-zeroOrOneStart)" marker-end="url(#my-svg_er-onlyOneEnd)"/><path d="M122.398,536.5L122.398,544.917C122.398,553.333,122.398,570.167,122.398,587C122.398,603.833,122.398,620.667,122.398,629.083L122.398,637.5" id="id_entity-User-2_entity-UserRole-0_2" class="edge-thickness-normal edge-pattern-solid relationshipLine" style="undefined;;;undefined" data-edge="true" data-et="edge" data-id="id_entity-User-2_entity-UserRole-0_2" data-points="W3sieCI6MTIyLjM5ODQzNzUsInkiOjUzNi41fSx7IngiOjEyMi4zOTg0Mzc1LCJ5Ijo1ODd9LHsieCI6MTIyLjM5ODQzNzUsInkiOjYzNy41fV0=" marker-start="url(#my-svg_er-zeroOrOneStart)" marker-end="url(#my-svg_er-onlyOneEnd)"/></g><g class="edgeLabels"><g class="edgeLabel" transform="translate(122.3984375, 186.75)"><g class="label" data-id="id_entity-MatchForecast-1_entity-User-2_0" transform="translate(-13.203125, -10.5)"><foreignObject width="26.40625" height="21"><div xmlns="http://www.w3.org/1999/xhtml" class="labelBkg" style="display: table-cell; white-space: nowrap; line-height: 1.5; max-width: 200px; text-align: center;"><span class="edgeLabel"><p>user</p></span></div></foreignObject></g></g><g class="edgeLabel" transform="translate(482.1015625, 186.75)"><g class="label" data-id="id_entity-MatchForecast-1_entity-Match-3_1" transform="translate(-19.5546875, -10.5)"><foreignObject width="39.109375" height="21"><div xmlns="http://www.w3.org/1999/xhtml" class="labelBkg" style="display: table-cell; white-space: nowrap; line-height: 1.5; max-width: 200px; text-align: center;"><span class="edgeLabel"><p>match</p></span></div></foreignObject></g></g><g class="edgeLabel" transform="translate(122.3984375, 587)"><g class="label" data-id="id_entity-User-2_entity-UserRole-0_2" transform="translate(-32.2109375, -10.5)"><foreignObject width="64.421875" height="21"><div xmlns="http://www.w3.org/1999/xhtml" class="labelBkg" style="display: table-cell; white-space: nowrap; line-height: 1.5; max-width: 200px; text-align: center;"><span class="edgeLabel"><p>enum:role</p></span></div></foreignObject></g></g></g><g class="nodes"><g class="node default" id="entity-UserRole-0" transform="translate(122.3984375, 701.625)"><g style=""><path d="M-70.265625 -64.125 L70.265625 -64.125 L70.265625 64.125 L-70.265625 64.125" stroke="none" stroke-width="0" fill="#cde498"/><path d="M-70.265625 -64.125 C-23.311767010209948 -64.125, 23.642090979580104 -64.125, 70.265625 -64.125 M-70.265625 -64.125 C-16.907443587725886 -64.125, 36.45073782454823 -64.125, 70.265625 -64.125 M70.265625 -64.125 C70.265625 -31.121663148481055, 70.265625 1.8816737030378903, 70.265625 64.125 M70.265625 -64.125 C70.265625 -20.46507157404328, 70.265625 23.194856851913443, 70.265625 64.125 M70.265625 64.125 C23.45560616882789 64.125, -23.354412662344217 64.125, -70.265625 64.125 M70.265625 64.125 C41.1647838859068 64.125, 12.063942771813593 64.125, -70.265625 64.125 M-70.265625 64.125 C-70.265625 13.129290526034048, -70.265625 -37.866418947931905, -70.265625 -64.125 M-70.265625 64.125 C-70.265625 35.485162588935864, -70.265625 6.845325177871722, -70.265625 -64.125" stroke="#13540c" stroke-width="1.3" fill="none" stroke-dasharray="0 0"/></g><g style="" class="row-rect-odd"><path d="M-70.265625 -21.375 L70.265625 -21.375 L70.265625 21.375 L-70.265625 21.375" stroke="none" stroke-width="0" fill="hsl(78.1578947368, 58.4615384615%, 100%)"/><path d="M-70.265625 -21.375 C-26.374148052131233 -21.375, 17.517328895737535 -21.375, 70.265625 -21.375 M-70.265625 -21.375 C-24.39118822442162 -21.375, 21.483248551156763 -21.375, 70.265625 -21.375 M70.265625 -21.375 C70.265625 -12.491806188495989, 70.265625 -3.608612376991978, 70.265625 21.375 M70.265625 -21.375 C70.265625 -8.741600323224677, 70.265625 3.8917993535506454, 70.265625 21.375 M70.265625 21.375 C24.18269378715941 21.375, -21.900237425681183 21.375, -70.265625 21.375 M70.265625 21.375 C40.954648271791314 21.375, 11.643671543582627 21.375, -70.265625 21.375 M-70.265625 21.375 C-70.265625 12.144979823830841, -70.265625 2.914959647661682, -70.265625 -21.375 M-70.265625 21.375 C-70.265625 11.119812696288017, -70.265625 0.8646253925760341, -70.265625 -21.375" stroke="#13540c" stroke-width="1.3" fill="none" stroke-dasharray="0 0"/></g><g style="" class="row-rect-even"><path d="M-70.265625 21.375 L70.265625 21.375 L70.265625 64.125 L-70.265625 64.125" stroke="none" stroke-width="0" fill="hsl(78.1578947368, 58.4615384615%, 94.5098039216%)"/><path d="M-70.265625 21.375 C-16.730049473810958 21.375, 36.805526052378085 21.375, 70.265625 21.375 M-70.265625 21.375 C-35.35099389312163 21.375, -0.4363627862432651 21.375, 70.265625 21.375 M70.265625 21.375 C70.265625 33.73703746112651, 70.265625 46.099074922253024, 70.265625 64.125 M70.265625 21.375 C70.265625 36.581304128096875, 70.265625 51.78760825619375, 70.265625 64.125 M70.265625 64.125 C41.076491923385305 64.125, 11.88735884677061 64.125, -70.265625 64.125 M70.265625 64.125 C24.981652326418512 64.125, -20.302320347162976 64.125, -70.265625 64.125 M-70.265625 64.125 C-70.265625 50.29149739193211, -70.265625 36.45799478386422, -70.265625 21.375 M-70.265625 64.125 C-70.265625 47.40269824610529, -70.265625 30.68039649221057, -70.265625 21.375" stroke="#13540c" stroke-width="1.3" fill="none" stroke-dasharray="0 0"/></g><g class="label name" transform="translate(-31.25, -54.75)" style=""><foreignObject width="62.5" height="24"><div xmlns="http://www.w3.org/1999/xhtml" style="display: table-cell; white-space: nowrap; line-height: 1.5; max-width: 161px; text-align: start;"><span class="nodeLabel"><p>UserRole</p></span></div></foreignObject></g><g class="label attribute-type" transform="translate(-57.765625, -12)" style=""><foreignObject width="35.953125" height="24"><div xmlns="http://www.w3.org/1999/xhtml" style="display: table-cell; white-space: nowrap; line-height: 1.5; max-width: 143px; text-align: start;"><span class="nodeLabel"><p>USER</p></span></div></foreignObject></g><g class="label attribute-name" transform="translate(12.5, -12)" style=""><foreignObject width="35.953125" height="24"><div xmlns="http://www.w3.org/1999/xhtml" style="display: table-cell; white-space: nowrap; line-height: 1.5; max-width: 143px; text-align: start;"><span class="nodeLabel"><p>USER</p></span></div></foreignObject></g><g class="label attribute-keys" transform="translate(82.765625, -12)" style=""><foreignObject width="0" height="0"><div xmlns="http://www.w3.org/1999/xhtml" style="display: table-cell; white-space: nowrap; line-height: 1.5; max-width: 100px; text-align: start;"><span class="nodeLabel"></span></div></foreignObject></g><g class="label attribute-comment" transform="translate(82.765625, -12)" style=""><foreignObject width="0" height="0"><div xmlns="http://www.w3.org/1999/xhtml" style="display: table-cell; white-space: nowrap; line-height: 1.5; max-width: 100px; text-align: start;"><span class="nodeLabel"></span></div></foreignObject></g><g class="label attribute-type" transform="translate(-57.765625, 30.75)" style=""><foreignObject width="45.265625" height="24"><div xmlns="http://www.w3.org/1999/xhtml" style="display: table-cell; white-space: nowrap; line-height: 1.5; max-width: 156px; text-align: start;"><span class="nodeLabel"><p>ADMIN</p></span></div></foreignObject></g><g class="label attribute-name" transform="translate(12.5, 30.75)" style=""><foreignObject width="45.265625" height="24"><div xmlns="http://www.w3.org/1999/xhtml" style="display: table-cell; white-space: nowrap; line-height: 1.5; max-width: 156px; text-align: start;"><span class="nodeLabel"><p>ADMIN</p></span></div></foreignObject></g><g class="label attribute-keys" transform="translate(82.765625, 30.75)" style=""><foreignObject width="0" height="0"><div xmlns="http://www.w3.org/1999/xhtml" style="display: table-cell; white-space: nowrap; line-height: 1.5; max-width: 100px; text-align: start;"><span class="nodeLabel"></span></div></foreignObject></g><g class="label attribute-comment" transform="translate(82.765625, 30.75)" style=""><foreignObject width="0" height="0"><div xmlns="http://www.w3.org/1999/xhtml" style="display: table-cell; white-space: nowrap; line-height: 1.5; max-width: 100px; text-align: start;"><span class="nodeLabel"></span></div></foreignObject></g><g class="divider"><path d="M-70.265625 -21.375 C-26.111621684125296 -21.375, 18.042381631749407 -21.375, 70.265625 -21.375 M-70.265625 -21.375 C-36.271526736554414 -21.375, -2.2774284731088272 -21.375, 70.265625 -21.375" stroke="#13540c" stroke-width="1.3" fill="none" stroke-dasharray="0 0"/></g><g class="divider"><path d="M0 -21.375 C0 -0.9349973772365239, 0 19.505005245526952, 0 64.125 M0 -21.375 C0 6.209775465236987, 0 33.794550930473974, 0 64.125" stroke="#13540c" stroke-width="1.3" fill="none" stroke-dasharray="0 0"/></g><g class="divider"><path d="M-70.265625 -21.375 C-28.05919240262697 -21.375, 14.147240194746061 -21.375, 70.265625 -21.375 M-70.265625 -21.375 C-35.44178998664497 -21.375, -0.6179549732899403 -21.375, 70.265625 -21.375" stroke="#13540c" stroke-width="1.3" fill="none" stroke-dasharray="0 0"/></g></g><g class="node default" id="entity-MatchForecast-1" transform="translate(302.25, 72.125)"><g style=""><path d="M-121.2578125 -64.125 L121.2578125 -64.125 L121.2578125 64.125 L-121.2578125 64.125" stroke="none" stroke-width="0" fill="#cde498"/><path d="M-121.2578125 -64.125 C-63.83742880799488 -64.125, -6.417045115989765 -64.125, 121.2578125 -64.125 M-121.2578125 -64.125 C-32.7709736091724 -64.125, 55.7158652816552 -64.125, 121.2578125 -64.125 M121.2578125 -64.125 C121.2578125 -24.190954785087797, 121.2578125 15.743090429824406, 121.2578125 64.125 M121.2578125 -64.125 C121.2578125 -34.69161633817444, 121.2578125 -5.258232676348882, 121.2578125 64.125 M121.2578125 64.125 C55.21974570723313 64.125, -10.81832108553374 64.125, -121.2578125 64.125 M121.2578125 64.125 C44.97314510916547 64.125, -31.311522281669056 64.125, -121.2578125 64.125 M-121.2578125 64.125 C-121.2578125 15.283443208249885, -121.2578125 -33.55811358350023, -121.2578125 -64.125 M-121.2578125 64.125 C-121.2578125 21.617693246350278, -121.2578125 -20.889613507299444, -121.2578125 -64.125" stroke="#13540c" stroke-width="1.3" fill="none" stroke-dasharray="0 0"/></g><g style="" class="row-rect-odd"><path d="M-121.2578125 -21.375 L121.2578125 -21.375 L121.2578125 21.375 L-121.2578125 21.375" stroke="none" stroke-width="0" fill="hsl(78.1578947368, 58.4615384615%, 100%)"/><path d="M-121.2578125 -21.375 C-50.04638401633437 -21.375, 21.165044467331256 -21.375, 121.2578125 -21.375 M-121.2578125 -21.375 C-69.84321576101762 -21.375, -18.428619022035235 -21.375, 121.2578125 -21.375 M121.2578125 -21.375 C121.2578125 -9.637833842056818, 121.2578125 2.0993323158863646, 121.2578125 21.375 M121.2578125 -21.375 C121.2578125 -11.826435847957502, 121.2578125 -2.277871695915003, 121.2578125 21.375 M121.2578125 21.375 C33.13424218375911 21.375, -54.98932813248177 21.375, -121.2578125 21.375 M121.2578125 21.375 C44.343802124789164 21.375, -32.57020825042167 21.375, -121.2578125 21.375 M-121.2578125 21.375 C-121.2578125 10.769028230549058, -121.2578125 0.16305646109811534, -121.2578125 -21.375 M-121.2578125 21.375 C-121.2578125 8.041861201876014, -121.2578125 -5.291277596247973, -121.2578125 -21.375" stroke="#13540c" stroke-width="1.3" fill="none" stroke-dasharray="0 0"/></g><g style="" class="row-rect-even"><path d="M-121.2578125 21.375 L121.2578125 21.375 L121.2578125 64.125 L-121.2578125 64.125" stroke="none" stroke-width="0" fill="hsl(78.1578947368, 58.4615384615%, 94.5098039216%)"/><path d="M-121.2578125 21.375 C-69.97022597006351 21.375, -18.68263944012702 21.375, 121.2578125 21.375 M-121.2578125 21.375 C-43.182405474673644 21.375, 34.89300155065271 21.375, 121.2578125 21.375 M121.2578125 21.375 C121.2578125 30.49381714157411, 121.2578125 39.61263428314822, 121.2578125 64.125 M121.2578125 21.375 C121.2578125 33.88455535334398, 121.2578125 46.394110706687954, 121.2578125 64.125 M121.2578125 64.125 C61.73454406999822 64.125, 2.211275639996444 64.125, -121.2578125 64.125 M121.2578125 64.125 C26.926098749494813 64.125, -67.40561500101037 64.125, -121.2578125 64.125 M-121.2578125 64.125 C-121.2578125 48.25800535883338, -121.2578125 32.39101071766676, -121.2578125 21.375 M-121.2578125 64.125 C-121.2578125 53.013745071933315, -121.2578125 41.90249014386663, -121.2578125 21.375" stroke="#13540c" stroke-width="1.3" fill="none" stroke-dasharray="0 0"/></g><g class="label name" transform="translate(-51.921875, -54.75)" style=""><foreignObject width="103.84375" height="24"><div xmlns="http://www.w3.org/1999/xhtml" style="display: table-cell; white-space: nowrap; line-height: 1.5; max-width: 197px; text-align: start;"><span class="nodeLabel"><p>MatchForecast</p></span></div></foreignObject></g><g class="label attribute-type" transform="translate(-108.7578125, -12)" style=""><foreignObject width="19.546875" height="24"><div xmlns="http://www.w3.org/1999/xhtml" style="display: table-cell; white-space: nowrap; line-height: 1.5; max-width: 118px; text-align: start;"><span class="nodeLabel"><p>Int</p></span></div></foreignObject></g><g class="label attribute-name" transform="translate(-42.1640625, -12)" style=""><foreignObject width="43.625" height="24"><div xmlns="http://www.w3.org/1999/xhtml" style="display: table-cell; white-space: nowrap; line-height: 1.5; max-width: 140px; text-align: start;"><span class="nodeLabel"><p>points</p></span></div></foreignObject></g><g class="label attribute-keys" transform="translate(86.7890625, -12)" style=""><foreignObject width="0" height="0"><div xmlns="http://www.w3.org/1999/xhtml" style="display: table-cell; white-space: nowrap; line-height: 1.5; max-width: 100px; text-align: start;"><span class="nodeLabel"></span></div></foreignObject></g><g class="label attribute-comment" transform="translate(86.7890625, -12)" style=""><foreignObject width="21.96875" height="24"><div xmlns="http://www.w3.org/1999/xhtml" style="display: table-cell; white-space: nowrap; line-height: 1.5; max-width: 122px; text-align: start;"><span class="nodeLabel"><p>❓</p></span></div></foreignObject></g><g class="label attribute-type" transform="translate(-108.7578125, 30.75)" style=""><foreignObject width="41.59375" height="24"><div xmlns="http://www.w3.org/1999/xhtml" style="display: table-cell; white-space: nowrap; line-height: 1.5; max-width: 139px; text-align: start;"><span class="nodeLabel"><p>String</p></span></div></foreignObject></g><g class="label attribute-name" transform="translate(-42.1640625, 30.75)" style=""><foreignObject width="103.953125" height="24"><div xmlns="http://www.w3.org/1999/xhtml" style="display: table-cell; white-space: nowrap; line-height: 1.5; max-width: 195px; text-align: start;"><span class="nodeLabel"><p>resultForeCast</p></span></div></foreignObject></g><g class="label attribute-keys" transform="translate(86.7890625, 30.75)" style=""><foreignObject width="0" height="0"><div xmlns="http://www.w3.org/1999/xhtml" style="display: table-cell; white-space: nowrap; line-height: 1.5; max-width: 100px; text-align: start;"><span class="nodeLabel"></span></div></foreignObject></g><g class="label attribute-comment" transform="translate(86.7890625, 30.75)" style=""><foreignObject width="21.96875" height="24"><div xmlns="http://www.w3.org/1999/xhtml" style="display: table-cell; white-space: nowrap; line-height: 1.5; max-width: 122px; text-align: start;"><span class="nodeLabel"><p>❓</p></span></div></foreignObject></g><g class="divider"><path d="M-121.2578125 -21.375 C-65.23884699375012 -21.375, -9.219881487500217 -21.375, 121.2578125 -21.375 M-121.2578125 -21.375 C-44.46681186894307 -21.375, 32.32418876211386 -21.375, 121.2578125 -21.375" stroke="#13540c" stroke-width="1.3" fill="none" stroke-dasharray="0 0"/></g><g class="divider"><path d="M-54.6640625 -21.375 C-54.6640625 -3.8930136793905916, -54.6640625 13.588972641218817, -54.6640625 64.125 M-54.6640625 -21.375 C-54.6640625 -3.9765251638393195, -54.6640625 13.421949672321361, -54.6640625 64.125" stroke="#13540c" stroke-width="1.3" fill="none" stroke-dasharray="0 0"/></g><g class="divider"><path d="M74.2890625 -21.375 C74.2890625 -3.7247627717588188, 74.2890625 13.925474456482362, 74.2890625 64.125 M74.2890625 -21.375 C74.2890625 12.519583133910018, 74.2890625 46.414166267820036, 74.2890625 64.125" stroke="#13540c" stroke-width="1.3" fill="none" stroke-dasharray="0 0"/></g><g class="divider"><path d="M-121.2578125 -21.375 C-38.18110837609592 -21.375, 44.89559574780816 -21.375, 121.2578125 -21.375 M-121.2578125 -21.375 C-25.52911262626661 -21.375, 70.19958724746678 -21.375, 121.2578125 -21.375" stroke="#13540c" stroke-width="1.3" fill="none" stroke-dasharray="0 0"/></g></g><g class="node default" id="entity-User-2" transform="translate(122.3984375, 386.875)"><g style=""><path d="M-114.3984375 -149.625 L114.3984375 -149.625 L114.3984375 149.625 L-114.3984375 149.625" stroke="none" stroke-width="0" fill="#cde498"/><path d="M-114.3984375 -149.625 C-40.92848566699922 -149.625, 32.541466166001555 -149.625, 114.3984375 -149.625 M-114.3984375 -149.625 C-60.97665241632563 -149.625, -7.554867332651256 -149.625, 114.3984375 -149.625 M114.3984375 -149.625 C114.3984375 -85.36924708531527, 114.3984375 -21.11349417063053, 114.3984375 149.625 M114.3984375 -149.625 C114.3984375 -89.59835135631762, 114.3984375 -29.571702712635243, 114.3984375 149.625 M114.3984375 149.625 C35.25816963039374 149.625, -43.882098239212525 149.625, -114.3984375 149.625 M114.3984375 149.625 C51.893656263473545 149.625, -10.61112497305291 149.625, -114.3984375 149.625 M-114.3984375 149.625 C-114.3984375 65.68366678180158, -114.3984375 -18.257666436396846, -114.3984375 -149.625 M-114.3984375 149.625 C-114.3984375 37.381991177504176, -114.3984375 -74.86101764499165, -114.3984375 -149.625" stroke="#13540c" stroke-width="1.3" fill="none" stroke-dasharray="0 0"/></g><g style="" class="row-rect-odd"><path d="M-114.3984375 -106.875 L114.3984375 -106.875 L114.3984375 -64.125 L-114.3984375 -64.125" stroke="none" stroke-width="0" fill="hsl(78.1578947368, 58.4615384615%, 100%)"/><path d="M-114.3984375 -106.875 C-23.985556650446185 -106.875, 66.42732419910763 -106.875, 114.3984375 -106.875 M-114.3984375 -106.875 C-35.35582582921904 -106.875, 43.686785841561914 -106.875, 114.3984375 -106.875 M114.3984375 -106.875 C114.3984375 -90.89749699459814, 114.3984375 -74.91999398919629, 114.3984375 -64.125 M114.3984375 -106.875 C114.3984375 -91.16894342835396, 114.3984375 -75.46288685670793, 114.3984375 -64.125 M114.3984375 -64.125 C59.00134285834421 -64.125, 3.6042482166884184 -64.125, -114.3984375 -64.125 M114.3984375 -64.125 C56.61334944468007 -64.125, -1.1717386106398635 -64.125, -114.3984375 -64.125 M-114.3984375 -64.125 C-114.3984375 -75.9589121175894, -114.3984375 -87.79282423517881, -114.3984375 -106.875 M-114.3984375 -64.125 C-114.3984375 -77.13466900736508, -114.3984375 -90.14433801473015, -114.3984375 -106.875" stroke="#13540c" stroke-width="1.3" fill="none" stroke-dasharray="0 0"/></g><g style="" class="row-rect-even"><path d="M-114.3984375 -64.125 L114.3984375 -64.125 L114.3984375 -21.375 L-114.3984375 -21.375" stroke="none" stroke-width="0" fill="hsl(78.1578947368, 58.4615384615%, 94.5098039216%)"/><path d="M-114.3984375 -64.125 C-48.6481997796222 -64.125, 17.102037940755594 -64.125, 114.3984375 -64.125 M-114.3984375 -64.125 C-63.332939198744704 -64.125, -12.267440897489408 -64.125, 114.3984375 -64.125 M114.3984375 -64.125 C114.3984375 -48.7959664683616, 114.3984375 -33.4669329367232, 114.3984375 -21.375 M114.3984375 -64.125 C114.3984375 -47.41727701678451, 114.3984375 -30.709554033569013, 114.3984375 -21.375 M114.3984375 -21.375 C39.49048242174793 -21.375, -35.417472656504145 -21.375, -114.3984375 -21.375 M114.3984375 -21.375 C31.409227976137544 -21.375, -51.57998154772491 -21.375, -114.3984375 -21.375 M-114.3984375 -21.375 C-114.3984375 -34.52961635181693, -114.3984375 -47.684232703633846, -114.3984375 -64.125 M-114.3984375 -21.375 C-114.3984375 -31.417484724705147, -114.3984375 -41.459969449410295, -114.3984375 -64.125" stroke="#13540c" stroke-width="1.3" fill="none" stroke-dasharray="0 0"/></g><g style="" class="row-rect-odd"><path d="M-114.3984375 -21.375 L114.3984375 -21.375 L114.3984375 21.375 L-114.3984375 21.375" stroke="none" stroke-width="0" fill="hsl(78.1578947368, 58.4615384615%, 100%)"/><path d="M-114.3984375 -21.375 C-25.943146322273805 -21.375, 62.51214485545239 -21.375, 114.3984375 -21.375 M-114.3984375 -21.375 C-46.04713852151116 -21.375, 22.304160456977684 -21.375, 114.3984375 -21.375 M114.3984375 -21.375 C114.3984375 -6.268837911462244, 114.3984375 8.837324177075512, 114.3984375 21.375 M114.3984375 -21.375 C114.3984375 -12.42603354359474, 114.3984375 -3.4770670871894787, 114.3984375 21.375 M114.3984375 21.375 C23.634502477862583 21.375, -67.12943254427483 21.375, -114.3984375 21.375 M114.3984375 21.375 C36.59222582250118 21.375, -41.213985854997645 21.375, -114.3984375 21.375 M-114.3984375 21.375 C-114.3984375 6.708221211272775, -114.3984375 -7.9585575774544495, -114.3984375 -21.375 M-114.3984375 21.375 C-114.3984375 12.651749505343217, -114.3984375 3.9284990106864335, -114.3984375 -21.375" stroke="#13540c" stroke-width="1.3" fill="none" stroke-dasharray="0 0"/></g><g style="" class="row-rect-even"><path d="M-114.3984375 21.375 L114.3984375 21.375 L114.3984375 64.125 L-114.3984375 64.125" stroke="none" stroke-width="0" fill="hsl(78.1578947368, 58.4615384615%, 94.5098039216%)"/><path d="M-114.3984375 21.375 C-48.609292781386785 21.375, 17.17985193722643 21.375, 114.3984375 21.375 M-114.3984375 21.375 C-37.01244838686068 21.375, 40.373540726278634 21.375, 114.3984375 21.375 M114.3984375 21.375 C114.3984375 35.737281406904344, 114.3984375 50.099562813808696, 114.3984375 64.125 M114.3984375 21.375 C114.3984375 36.21595726862306, 114.3984375 51.056914537246115, 114.3984375 64.125 M114.3984375 64.125 C52.845289750443975 64.125, -8.70785799911205 64.125, -114.3984375 64.125 M114.3984375 64.125 C64.00417959919491 64.125, 13.609921698389812 64.125, -114.3984375 64.125 M-114.3984375 64.125 C-114.3984375 51.94591881322182, -114.3984375 39.766837626443646, -114.3984375 21.375 M-114.3984375 64.125 C-114.3984375 50.00543590498526, -114.3984375 35.885871809970524, -114.3984375 21.375" stroke="#13540c" stroke-width="1.3" fill="none" stroke-dasharray="0 0"/></g><g style="" class="row-rect-odd"><path d="M-114.3984375 64.125 L114.3984375 64.125 L114.3984375 106.875 L-114.3984375 106.875" stroke="none" stroke-width="0" fill="hsl(78.1578947368, 58.4615384615%, 100%)"/><path d="M-114.3984375 64.125 C-55.32427082368681 64.125, 3.7498958526263806 64.125, 114.3984375 64.125 M-114.3984375 64.125 C-40.13104272809639 64.125, 34.13635204380722 64.125, 114.3984375 64.125 M114.3984375 64.125 C114.3984375 81.04603985737336, 114.3984375 97.96707971474673, 114.3984375 106.875 M114.3984375 64.125 C114.3984375 73.9034679577912, 114.3984375 83.68193591558239, 114.3984375 106.875 M114.3984375 106.875 C65.59197319422293 106.875, 16.785508888445875 106.875, -114.3984375 106.875 M114.3984375 106.875 C50.55391029659282 106.875, -13.290616906814364 106.875, -114.3984375 106.875 M-114.3984375 106.875 C-114.3984375 97.75960585627486, -114.3984375 88.64421171254972, -114.3984375 64.125 M-114.3984375 106.875 C-114.3984375 91.15940790833716, -114.3984375 75.44381581667432, -114.3984375 64.125" stroke="#13540c" stroke-width="1.3" fill="none" stroke-dasharray="0 0"/></g><g style="" class="row-rect-even"><path d="M-114.3984375 106.875 L114.3984375 106.875 L114.3984375 149.625 L-114.3984375 149.625" stroke="none" stroke-width="0" fill="hsl(78.1578947368, 58.4615384615%, 94.5098039216%)"/><path d="M-114.3984375 106.875 C-37.654802216388845 106.875, 39.08883306722231 106.875, 114.3984375 106.875 M-114.3984375 106.875 C-45.92262972274112 106.875, 22.55317805451776 106.875, 114.3984375 106.875 M114.3984375 106.875 C114.3984375 116.21471274566369, 114.3984375 125.55442549132738, 114.3984375 149.625 M114.3984375 106.875 C114.3984375 122.5725510883243, 114.3984375 138.2701021766486, 114.3984375 149.625 M114.3984375 149.625 C23.26977851768939 149.625, -67.85888046462122 149.625, -114.3984375 149.625 M114.3984375 149.625 C26.64447720894057 149.625, -61.10948308211886 149.625, -114.3984375 149.625 M-114.3984375 149.625 C-114.3984375 137.922985905783, -114.3984375 126.220971811566, -114.3984375 106.875 M-114.3984375 149.625 C-114.3984375 137.51137466661734, -114.3984375 125.39774933323469, -114.3984375 106.875" stroke="#13540c" stroke-width="1.3" fill="none" stroke-dasharray="0 0"/></g><g class="label name" transform="translate(-15.8984375, -140.25)" style=""><foreignObject width="31.796875" height="24"><div xmlns="http://www.w3.org/1999/xhtml" style="display: table-cell; white-space: nowrap; line-height: 1.5; max-width: 132px; text-align: start;"><span class="nodeLabel"><p>User</p></span></div></foreignObject></g><g class="label attribute-type" transform="translate(-101.8984375, -97.5)" style=""><foreignObject width="19.546875" height="24"><div xmlns="http://www.w3.org/1999/xhtml" style="display: table-cell; white-space: nowrap; line-height: 1.5; max-width: 118px; text-align: start;"><span class="nodeLabel"><p>Int</p></span></div></foreignObject></g><g class="label attribute-name" transform="translate(-14.3984375, -97.5)" style=""><foreignObject width="13.484375" height="24"><div xmlns="http://www.w3.org/1999/xhtml" style="display: table-cell; white-space: nowrap; line-height: 1.5; max-width: 113px; text-align: start;"><span class="nodeLabel"><p>id</p></span></div></foreignObject></g><g class="label attribute-keys" transform="translate(79.9296875, -97.5)" style=""><foreignObject width="0" height="0"><div xmlns="http://www.w3.org/1999/xhtml" style="display: table-cell; white-space: nowrap; line-height: 1.5; max-width: 100px; text-align: start;"><span class="nodeLabel"></span></div></foreignObject></g><g class="label attribute-comment" transform="translate(79.9296875, -97.5)" style=""><foreignObject width="21.96875" height="24"><div xmlns="http://www.w3.org/1999/xhtml" style="display: table-cell; white-space: nowrap; line-height: 1.5; max-width: 122px; text-align: start;"><span class="nodeLabel"><p>🗝️</p></span></div></foreignObject></g><g class="label attribute-type" transform="translate(-101.8984375, -54.75)" style=""><foreignObject width="41.59375" height="24"><div xmlns="http://www.w3.org/1999/xhtml" style="display: table-cell; white-space: nowrap; line-height: 1.5; max-width: 139px; text-align: start;"><span class="nodeLabel"><p>String</p></span></div></foreignObject></g><g class="label attribute-name" transform="translate(-14.3984375, -54.75)" style=""><foreignObject width="69.328125" height="24"><div xmlns="http://www.w3.org/1999/xhtml" style="display: table-cell; white-space: nowrap; line-height: 1.5; max-width: 162px; text-align: start;"><span class="nodeLabel"><p>username</p></span></div></foreignObject></g><g class="label attribute-keys" transform="translate(79.9296875, -54.75)" style=""><foreignObject width="0" height="0"><div xmlns="http://www.w3.org/1999/xhtml" style="display: table-cell; white-space: nowrap; line-height: 1.5; max-width: 100px; text-align: start;"><span class="nodeLabel"></span></div></foreignObject></g><g class="label attribute-comment" transform="translate(79.9296875, -54.75)" style=""><foreignObject width="0" height="0"><div xmlns="http://www.w3.org/1999/xhtml" style="display: table-cell; white-space: nowrap; line-height: 1.5; max-width: 100px; text-align: start;"><span class="nodeLabel"></span></div></foreignObject></g><g class="label attribute-type" transform="translate(-101.8984375, -12)" style=""><foreignObject width="41.59375" height="24"><div xmlns="http://www.w3.org/1999/xhtml" style="display: table-cell; white-space: nowrap; line-height: 1.5; max-width: 139px; text-align: start;"><span class="nodeLabel"><p>String</p></span></div></foreignObject></g><g class="label attribute-name" transform="translate(-14.3984375, -12)" style=""><foreignObject width="39.15625" height="24"><div xmlns="http://www.w3.org/1999/xhtml" style="display: table-cell; white-space: nowrap; line-height: 1.5; max-width: 136px; text-align: start;"><span class="nodeLabel"><p>name</p></span></div></foreignObject></g><g class="label attribute-keys" transform="translate(79.9296875, -12)" style=""><foreignObject width="0" height="0"><div xmlns="http://www.w3.org/1999/xhtml" style="display: table-cell; white-space: nowrap; line-height: 1.5; max-width: 100px; text-align: start;"><span class="nodeLabel"></span></div></foreignObject></g><g class="label attribute-comment" transform="translate(79.9296875, -12)" style=""><foreignObject width="21.96875" height="24"><div xmlns="http://www.w3.org/1999/xhtml" style="display: table-cell; white-space: nowrap; line-height: 1.5; max-width: 122px; text-align: start;"><span class="nodeLabel"><p>❓</p></span></div></foreignObject></g><g class="label attribute-type" transform="translate(-101.8984375, 30.75)" style=""><foreignObject width="41.59375" height="24"><div xmlns="http://www.w3.org/1999/xhtml" style="display: table-cell; white-space: nowrap; line-height: 1.5; max-width: 139px; text-align: start;"><span class="nodeLabel"><p>String</p></span></div></foreignObject></g><g class="label attribute-name" transform="translate(-14.3984375, 30.75)" style=""><foreignObject width="65.109375" height="24"><div xmlns="http://www.w3.org/1999/xhtml" style="display: table-cell; white-space: nowrap; line-height: 1.5; max-width: 157px; text-align: start;"><span class="nodeLabel"><p>lastname</p></span></div></foreignObject></g><g class="label attribute-keys" transform="translate(79.9296875, 30.75)" style=""><foreignObject width="0" height="0"><div xmlns="http://www.w3.org/1999/xhtml" style="display: table-cell; white-space: nowrap; line-height: 1.5; max-width: 100px; text-align: start;"><span class="nodeLabel"></span></div></foreignObject></g><g class="label attribute-comment" transform="translate(79.9296875, 30.75)" style=""><foreignObject width="21.96875" height="24"><div xmlns="http://www.w3.org/1999/xhtml" style="display: table-cell; white-space: nowrap; line-height: 1.5; max-width: 122px; text-align: start;"><span class="nodeLabel"><p>❓</p></span></div></foreignObject></g><g class="label attribute-type" transform="translate(-101.8984375, 73.5)" style=""><foreignObject width="41.59375" height="24"><div xmlns="http://www.w3.org/1999/xhtml" style="display: table-cell; white-space: nowrap; line-height: 1.5; max-width: 139px; text-align: start;"><span class="nodeLabel"><p>String</p></span></div></foreignObject></g><g class="label attribute-name" transform="translate(-14.3984375, 73.5)" style=""><foreignObject width="65.90625" height="24"><div xmlns="http://www.w3.org/1999/xhtml" style="display: table-cell; white-space: nowrap; line-height: 1.5; max-width: 162px; text-align: start;"><span class="nodeLabel"><p>password</p></span></div></foreignObject></g><g class="label attribute-keys" transform="translate(79.9296875, 73.5)" style=""><foreignObject width="0" height="0"><div xmlns="http://www.w3.org/1999/xhtml" style="display: table-cell; white-space: nowrap; line-height: 1.5; max-width: 100px; text-align: start;"><span class="nodeLabel"></span></div></foreignObject></g><g class="label attribute-comment" transform="translate(79.9296875, 73.5)" style=""><foreignObject width="0" height="0"><div xmlns="http://www.w3.org/1999/xhtml" style="display: table-cell; white-space: nowrap; line-height: 1.5; max-width: 100px; text-align: start;"><span class="nodeLabel"></span></div></foreignObject></g><g class="label attribute-type" transform="translate(-101.8984375, 116.25)" style=""><foreignObject width="62.5" height="24"><div xmlns="http://www.w3.org/1999/xhtml" style="display: table-cell; white-space: nowrap; line-height: 1.5; max-width: 161px; text-align: start;"><span class="nodeLabel"><p>UserRole</p></span></div></foreignObject></g><g class="label attribute-name" transform="translate(-14.3984375, 116.25)" style=""><foreignObject width="28.25" height="24"><div xmlns="http://www.w3.org/1999/xhtml" style="display: table-cell; white-space: nowrap; line-height: 1.5; max-width: 126px; text-align: start;"><span class="nodeLabel"><p>role</p></span></div></foreignObject></g><g class="label attribute-keys" transform="translate(79.9296875, 116.25)" style=""><foreignObject width="0" height="0"><div xmlns="http://www.w3.org/1999/xhtml" style="display: table-cell; white-space: nowrap; line-height: 1.5; max-width: 100px; text-align: start;"><span class="nodeLabel"></span></div></foreignObject></g><g class="label attribute-comment" transform="translate(79.9296875, 116.25)" style=""><foreignObject width="0" height="0"><div xmlns="http://www.w3.org/1999/xhtml" style="display: table-cell; white-space: nowrap; line-height: 1.5; max-width: 100px; text-align: start;"><span class="nodeLabel"></span></div></foreignObject></g><g class="divider"><path d="M-114.3984375 -106.875 C-44.36419337435143 -106.875, 25.67005075129714 -106.875, 114.3984375 -106.875 M-114.3984375 -106.875 C-43.192226408610225 -106.875, 28.01398468277955 -106.875, 114.3984375 -106.875" stroke="#13540c" stroke-width="1.3" fill="none" stroke-dasharray="0 0"/></g><g class="divider"><path d="M-26.8984375 -106.875 C-26.8984375 -8.902744622325955, -26.8984375 89.06951075534809, -26.8984375 149.625 M-26.8984375 -106.875 C-26.8984375 -7.891375936840632, -26.8984375 91.09224812631874, -26.8984375 149.625" stroke="#13540c" stroke-width="1.3" fill="none" stroke-dasharray="0 0"/></g><g class="divider"><path d="M67.4296875 -106.875 C67.4296875 -25.94682967429199, 67.4296875 54.98134065141602, 67.4296875 149.625 M67.4296875 -106.875 C67.4296875 -40.259060508202225, 67.4296875 26.35687898359555, 67.4296875 149.625" stroke="#13540c" stroke-width="1.3" fill="none" stroke-dasharray="0 0"/></g><g class="divider"><path d="M-114.3984375 -106.875 C-24.326611033810593 -106.875, 65.74521543237881 -106.875, 114.3984375 -106.875 M-114.3984375 -106.875 C-28.01702202038844 -106.875, 58.36439345922312 -106.875, 114.3984375 -106.875" stroke="#13540c" stroke-width="1.3" fill="none" stroke-dasharray="0 0"/></g></g><g class="node default" id="entity-Match-3" transform="translate(482.1015625, 386.875)"><g style=""><path d="M-105.3046875 -128.25 L105.3046875 -128.25 L105.3046875 128.25 L-105.3046875 128.25" stroke="none" stroke-width="0" fill="#cde498"/><path d="M-105.3046875 -128.25 C-56.48175226443361 -128.25, -7.658817028867219 -128.25, 105.3046875 -128.25 M-105.3046875 -128.25 C-62.50395413857932 -128.25, -19.703220777158634 -128.25, 105.3046875 -128.25 M105.3046875 -128.25 C105.3046875 -59.58235173643837, 105.3046875 9.085296527123262, 105.3046875 128.25 M105.3046875 -128.25 C105.3046875 -65.71893318810342, 105.3046875 -3.1878663762068413, 105.3046875 128.25 M105.3046875 128.25 C22.107338228440284 128.25, -61.09001104311943 128.25, -105.3046875 128.25 M105.3046875 128.25 C51.13379233165552 128.25, -3.037102836688959 128.25, -105.3046875 128.25 M-105.3046875 128.25 C-105.3046875 40.20250366504817, -105.3046875 -47.84499266990366, -105.3046875 -128.25 M-105.3046875 128.25 C-105.3046875 75.54684891553393, -105.3046875 22.843697831067843, -105.3046875 -128.25" stroke="#13540c" stroke-width="1.3" fill="none" stroke-dasharray="0 0"/></g><g style="" class="row-rect-odd"><path d="M-105.3046875 -85.5 L105.3046875 -85.5 L105.3046875 -42.75 L-105.3046875 -42.75" stroke="none" stroke-width="0" fill="hsl(78.1578947368, 58.4615384615%, 100%)"/><path d="M-105.3046875 -85.5 C-34.43880666145755 -85.5, 36.427074177084904 -85.5, 105.3046875 -85.5 M-105.3046875 -85.5 C-51.483987209131854 -85.5, 2.336713081736292 -85.5, 105.3046875 -85.5 M105.3046875 -85.5 C105.3046875 -73.23015663230451, 105.3046875 -60.96031326460904, 105.3046875 -42.75 M105.3046875 -85.5 C105.3046875 -69.810752626628, 105.3046875 -54.12150525325599, 105.3046875 -42.75 M105.3046875 -42.75 C21.511811220657094 -42.75, -62.28106505868581 -42.75, -105.3046875 -42.75 M105.3046875 -42.75 C43.81028506544844 -42.75, -17.68411736910312 -42.75, -105.3046875 -42.75 M-105.3046875 -42.75 C-105.3046875 -58.535160089260465, -105.3046875 -74.32032017852093, -105.3046875 -85.5 M-105.3046875 -42.75 C-105.3046875 -56.760206368533105, -105.3046875 -70.77041273706621, -105.3046875 -85.5" stroke="#13540c" stroke-width="1.3" fill="none" stroke-dasharray="0 0"/></g><g style="" class="row-rect-even"><path d="M-105.3046875 -42.75 L105.3046875 -42.75 L105.3046875 0 L-105.3046875 0" stroke="none" stroke-width="0" fill="hsl(78.1578947368, 58.4615384615%, 94.5098039216%)"/><path d="M-105.3046875 -42.75 C-62.416586666082516 -42.75, -19.528485832165032 -42.75, 105.3046875 -42.75 M-105.3046875 -42.75 C-22.678618612966588 -42.75, 59.947450274066824 -42.75, 105.3046875 -42.75 M105.3046875 -42.75 C105.3046875 -29.90145142414258, 105.3046875 -17.05290284828516, 105.3046875 0 M105.3046875 -42.75 C105.3046875 -26.13213365689423, 105.3046875 -9.514267313788459, 105.3046875 0 M105.3046875 0 C60.204445043094296 0, 15.104202586188592 0, -105.3046875 0 M105.3046875 0 C25.41071006258767 0, -54.48326737482466 0, -105.3046875 0 M-105.3046875 0 C-105.3046875 -15.044041714776045, -105.3046875 -30.08808342955209, -105.3046875 -42.75 M-105.3046875 0 C-105.3046875 -11.206319197600035, -105.3046875 -22.41263839520007, -105.3046875 -42.75" stroke="#13540c" stroke-width="1.3" fill="none" stroke-dasharray="0 0"/></g><g style="" class="row-rect-odd"><path d="M-105.3046875 0 L105.3046875 0 L105.3046875 42.75 L-105.3046875 42.75" stroke="none" stroke-width="0" fill="hsl(78.1578947368, 58.4615384615%, 100%)"/><path d="M-105.3046875 0 C-55.99832195842884 0, -6.691956416857678 0, 105.3046875 0 M-105.3046875 0 C-42.592141168212926 0, 20.120405163574148 0, 105.3046875 0 M105.3046875 0 C105.3046875 12.52282857850974, 105.3046875 25.04565715701948, 105.3046875 42.75 M105.3046875 0 C105.3046875 15.222834558885019, 105.3046875 30.445669117770038, 105.3046875 42.75 M105.3046875 42.75 C45.55085372337482 42.75, -14.202980053250357 42.75, -105.3046875 42.75 M105.3046875 42.75 C44.108357256094635 42.75, -17.08797298781073 42.75, -105.3046875 42.75 M-105.3046875 42.75 C-105.3046875 26.658758635912623, -105.3046875 10.567517271825245, -105.3046875 0 M-105.3046875 42.75 C-105.3046875 29.94326683157621, -105.3046875 17.136533663152424, -105.3046875 0" stroke="#13540c" stroke-width="1.3" fill="none" stroke-dasharray="0 0"/></g><g style="" class="row-rect-even"><path d="M-105.3046875 42.75 L105.3046875 42.75 L105.3046875 85.5 L-105.3046875 85.5" stroke="none" stroke-width="0" fill="hsl(78.1578947368, 58.4615384615%, 94.5098039216%)"/><path d="M-105.3046875 42.75 C-42.06653022844455 42.75, 21.171627043110902 42.75, 105.3046875 42.75 M-105.3046875 42.75 C-23.8341023125017 42.75, 57.6364828749966 42.75, 105.3046875 42.75 M105.3046875 42.75 C105.3046875 56.65393935449896, 105.3046875 70.55787870899792, 105.3046875 85.5 M105.3046875 42.75 C105.3046875 51.525471791539665, 105.3046875 60.30094358307933, 105.3046875 85.5 M105.3046875 85.5 C58.76943389720064 85.5, 12.234180294401284 85.5, -105.3046875 85.5 M105.3046875 85.5 C28.439722583628708 85.5, -48.425242332742584 85.5, -105.3046875 85.5 M-105.3046875 85.5 C-105.3046875 70.09656631314955, -105.3046875 54.6931326262991, -105.3046875 42.75 M-105.3046875 85.5 C-105.3046875 75.83398367969669, -105.3046875 66.16796735939337, -105.3046875 42.75" stroke="#13540c" stroke-width="1.3" fill="none" stroke-dasharray="0 0"/></g><g style="" class="row-rect-odd"><path d="M-105.3046875 85.5 L105.3046875 85.5 L105.3046875 128.25 L-105.3046875 128.25" stroke="none" stroke-width="0" fill="hsl(78.1578947368, 58.4615384615%, 100%)"/><path d="M-105.3046875 85.5 C-37.288530898381055 85.5, 30.72762570323789 85.5, 105.3046875 85.5 M-105.3046875 85.5 C-45.69196530003317 85.5, 13.920756899933664 85.5, 105.3046875 85.5 M105.3046875 85.5 C105.3046875 96.38485749919094, 105.3046875 107.26971499838189, 105.3046875 128.25 M105.3046875 85.5 C105.3046875 94.39627931097263, 105.3046875 103.29255862194526, 105.3046875 128.25 M105.3046875 128.25 C32.18502256942239 128.25, -40.93464236115523 128.25, -105.3046875 128.25 M105.3046875 128.25 C32.313486112086906 128.25, -40.67771527582619 128.25, -105.3046875 128.25 M-105.3046875 128.25 C-105.3046875 119.25242131363977, -105.3046875 110.25484262727953, -105.3046875 85.5 M-105.3046875 128.25 C-105.3046875 114.775607487018, -105.3046875 101.30121497403599, -105.3046875 85.5" stroke="#13540c" stroke-width="1.3" fill="none" stroke-dasharray="0 0"/></g><g class="label name" transform="translate(-21.3828125, -118.875)" style=""><foreignObject width="42.765625" height="24"><div xmlns="http://www.w3.org/1999/xhtml" style="display: table-cell; white-space: nowrap; line-height: 1.5; max-width: 143px; text-align: start;"><span class="nodeLabel"><p>Match</p></span></div></foreignObject></g><g class="label attribute-type" transform="translate(-92.8046875, -76.125)" style=""><foreignObject width="19.546875" height="24"><div xmlns="http://www.w3.org/1999/xhtml" style="display: table-cell; white-space: nowrap; line-height: 1.5; max-width: 118px; text-align: start;"><span class="nodeLabel"><p>Int</p></span></div></foreignObject></g><g class="label attribute-name" transform="translate(0.6796875, -76.125)" style=""><foreignObject width="13.484375" height="24"><div xmlns="http://www.w3.org/1999/xhtml" style="display: table-cell; white-space: nowrap; line-height: 1.5; max-width: 113px; text-align: start;"><span class="nodeLabel"><p>id</p></span></div></foreignObject></g><g class="label attribute-keys" transform="translate(70.8359375, -76.125)" style=""><foreignObject width="0" height="0"><div xmlns="http://www.w3.org/1999/xhtml" style="display: table-cell; white-space: nowrap; line-height: 1.5; max-width: 100px; text-align: start;"><span class="nodeLabel"></span></div></foreignObject></g><g class="label attribute-comment" transform="translate(70.8359375, -76.125)" style=""><foreignObject width="21.96875" height="24"><div xmlns="http://www.w3.org/1999/xhtml" style="display: table-cell; white-space: nowrap; line-height: 1.5; max-width: 122px; text-align: start;"><span class="nodeLabel"><p>🗝️</p></span></div></foreignObject></g><g class="label attribute-type" transform="translate(-92.8046875, -33.375)" style=""><foreignObject width="41.59375" height="24"><div xmlns="http://www.w3.org/1999/xhtml" style="display: table-cell; white-space: nowrap; line-height: 1.5; max-width: 139px; text-align: start;"><span class="nodeLabel"><p>String</p></span></div></foreignObject></g><g class="label attribute-name" transform="translate(0.6796875, -33.375)" style=""><foreignObject width="45.15625" height="24"><div xmlns="http://www.w3.org/1999/xhtml" style="display: table-cell; white-space: nowrap; line-height: 1.5; max-width: 140px; text-align: start;"><span class="nodeLabel"><p>team1</p></span></div></foreignObject></g><g class="label attribute-keys" transform="translate(70.8359375, -33.375)" style=""><foreignObject width="0" height="0"><div xmlns="http://www.w3.org/1999/xhtml" style="display: table-cell; white-space: nowrap; line-height: 1.5; max-width: 100px; text-align: start;"><span class="nodeLabel"></span></div></foreignObject></g><g class="label attribute-comment" transform="translate(70.8359375, -33.375)" style=""><foreignObject width="0" height="0"><div xmlns="http://www.w3.org/1999/xhtml" style="display: table-cell; white-space: nowrap; line-height: 1.5; max-width: 100px; text-align: start;"><span class="nodeLabel"></span></div></foreignObject></g><g class="label attribute-type" transform="translate(-92.8046875, 9.375)" style=""><foreignObject width="41.59375" height="24"><div xmlns="http://www.w3.org/1999/xhtml" style="display: table-cell; white-space: nowrap; line-height: 1.5; max-width: 139px; text-align: start;"><span class="nodeLabel"><p>String</p></span></div></foreignObject></g><g class="label attribute-name" transform="translate(0.6796875, 9.375)" style=""><foreignObject width="45.15625" height="24"><div xmlns="http://www.w3.org/1999/xhtml" style="display: table-cell; white-space: nowrap; line-height: 1.5; max-width: 140px; text-align: start;"><span class="nodeLabel"><p>team2</p></span></div></foreignObject></g><g class="label attribute-keys" transform="translate(70.8359375, 9.375)" style=""><foreignObject width="0" height="0"><div xmlns="http://www.w3.org/1999/xhtml" style="display: table-cell; white-space: nowrap; line-height: 1.5; max-width: 100px; text-align: start;"><span class="nodeLabel"></span></div></foreignObject></g><g class="label attribute-comment" transform="translate(70.8359375, 9.375)" style=""><foreignObject width="0" height="0"><div xmlns="http://www.w3.org/1999/xhtml" style="display: table-cell; white-space: nowrap; line-height: 1.5; max-width: 100px; text-align: start;"><span class="nodeLabel"></span></div></foreignObject></g><g class="label attribute-type" transform="translate(-92.8046875, 52.125)" style=""><foreignObject width="68.484375" height="24"><div xmlns="http://www.w3.org/1999/xhtml" style="display: table-cell; white-space: nowrap; line-height: 1.5; max-width: 164px; text-align: start;"><span class="nodeLabel"><p>DateTime</p></span></div></foreignObject></g><g class="label attribute-name" transform="translate(0.6796875, 52.125)" style=""><foreignObject width="32.390625" height="24"><div xmlns="http://www.w3.org/1999/xhtml" style="display: table-cell; white-space: nowrap; line-height: 1.5; max-width: 127px; text-align: start;"><span class="nodeLabel"><p>date</p></span></div></foreignObject></g><g class="label attribute-keys" transform="translate(70.8359375, 52.125)" style=""><foreignObject width="0" height="0"><div xmlns="http://www.w3.org/1999/xhtml" style="display: table-cell; white-space: nowrap; line-height: 1.5; max-width: 100px; text-align: start;"><span class="nodeLabel"></span></div></foreignObject></g><g class="label attribute-comment" transform="translate(70.8359375, 52.125)" style=""><foreignObject width="0" height="0"><div xmlns="http://www.w3.org/1999/xhtml" style="display: table-cell; white-space: nowrap; line-height: 1.5; max-width: 100px; text-align: start;"><span class="nodeLabel"></span></div></foreignObject></g><g class="label attribute-type" transform="translate(-92.8046875, 94.875)" style=""><foreignObject width="41.59375" height="24"><div xmlns="http://www.w3.org/1999/xhtml" style="display: table-cell; white-space: nowrap; line-height: 1.5; max-width: 139px; text-align: start;"><span class="nodeLabel"><p>String</p></span></div></foreignObject></g><g class="label attribute-name" transform="translate(0.6796875, 94.875)" style=""><foreignObject width="41.234375" height="24"><div xmlns="http://www.w3.org/1999/xhtml" style="display: table-cell; white-space: nowrap; line-height: 1.5; max-width: 137px; text-align: start;"><span class="nodeLabel"><p>result</p></span></div></foreignObject></g><g class="label attribute-keys" transform="translate(70.8359375, 94.875)" style=""><foreignObject width="0" height="0"><div xmlns="http://www.w3.org/1999/xhtml" style="display: table-cell; white-space: nowrap; line-height: 1.5; max-width: 100px; text-align: start;"><span class="nodeLabel"></span></div></foreignObject></g><g class="label attribute-comment" transform="translate(70.8359375, 94.875)" style=""><foreignObject width="21.96875" height="24"><div xmlns="http://www.w3.org/1999/xhtml" style="display: table-cell; white-space: nowrap; line-height: 1.5; max-width: 122px; text-align: start;"><span class="nodeLabel"><p>❓</p></span></div></foreignObject></g><g class="divider"><path d="M-105.3046875 -85.5 C-27.738053619822225 -85.5, 49.82858026035555 -85.5, 105.3046875 -85.5 M-105.3046875 -85.5 C-33.518797911279506 -85.5, 38.26709167744099 -85.5, 105.3046875 -85.5" stroke="#13540c" stroke-width="1.3" fill="none" stroke-dasharray="0 0"/></g><g class="divider"><path d="M-11.8203125 -85.5 C-11.8203125 -9.20220282919692, -11.8203125 67.09559434160616, -11.8203125 128.25 M-11.8203125 -85.5 C-11.8203125 -7.613280698544301, -11.8203125 70.2734386029114, -11.8203125 128.25" stroke="#13540c" stroke-width="1.3" fill="none" stroke-dasharray="0 0"/></g><g class="divider"><path d="M58.3359375 -85.5 C58.3359375 -40.210571227666065, 58.3359375 5.078857544667869, 58.3359375 128.25 M58.3359375 -85.5 C58.3359375 -8.562560902917696, 58.3359375 68.37487819416461, 58.3359375 128.25" stroke="#13540c" stroke-width="1.3" fill="none" stroke-dasharray="0 0"/></g><g class="divider"><path d="M-105.3046875 -85.5 C-38.249583594203784 -85.5, 28.80552031159243 -85.5, 105.3046875 -85.5 M-105.3046875 -85.5 C-62.92074400975492 -85.5, -20.53680051950984 -85.5, 105.3046875 -85.5" stroke="#13540c" stroke-width="1.3" fill="none" stroke-dasharray="0 0"/></g></g></g></g></g></svg>